# Blender v2.80 (sub 74) OBJ File: 'tinajon.blend'
# www.blender.org
mtllib lampara2.mtl
o Cylinder.003
v 0.000187 -0.470427 -0.056818
v -0.028135 -0.470427 -0.040466
v -0.028135 -0.470427 -0.007763
v 0.000187 -0.470427 0.008589
v 0.028510 -0.470427 -0.007763
v 0.028510 -0.470427 -0.040466
v 0.000187 -0.445196 -0.056818
v -0.028135 -0.445196 -0.040466
v -0.028135 -0.445196 -0.007763
v 0.000187 -0.445196 0.008589
v 0.028510 -0.445196 -0.007763
v 0.028510 -0.445196 -0.040466
v 0.000187 -0.438354 -0.050753
v -0.022882 -0.438354 -0.037434
v -0.022882 -0.438354 -0.010795
v 0.000187 -0.438354 0.002524
v 0.023257 -0.438354 -0.010795
v 0.023257 -0.438354 -0.037433
v 0.000187 -0.379605 -0.041623
v -0.014975 -0.379605 -0.032869
v -0.014975 -0.379605 -0.015360
v 0.000187 -0.379605 -0.006606
v 0.015350 -0.379605 -0.015360
v 0.015350 -0.379605 -0.032869
v 0.000187 -0.379605 -0.044749
v -0.017683 -0.379605 -0.034432
v -0.017683 -0.379605 -0.013797
v 0.000187 -0.379605 -0.003479
v 0.018058 -0.379605 -0.013797
v 0.018058 -0.379605 -0.034432
v 0.000187 -0.376793 -0.047107
v -0.019724 -0.376793 -0.035611
v -0.019724 -0.376793 -0.012618
v 0.000187 -0.376793 -0.001122
v 0.020099 -0.376793 -0.012618
v 0.020099 -0.376793 -0.035611
v 0.000187 -0.372465 -0.042562
v -0.015788 -0.372465 -0.033338
v -0.015788 -0.372465 -0.014891
v 0.000187 -0.372465 -0.005667
v 0.016163 -0.372465 -0.014891
v 0.016163 -0.372465 -0.033338
v 0.000187 -0.356071 -0.035019
v -0.009256 -0.356071 -0.029566
v -0.009256 -0.356071 -0.018662
v 0.000187 -0.356071 -0.013210
v 0.009631 -0.356071 -0.018662
v 0.009631 -0.356071 -0.029566
v 0.000187 -0.356071 -0.037145
v -0.011097 -0.356071 -0.030630
v -0.011097 -0.356071 -0.017599
v 0.000187 -0.356071 -0.011084
v 0.011472 -0.356071 -0.017599
v 0.011472 -0.356071 -0.030630
v 0.000187 -0.352627 -0.037145
v -0.011097 -0.352627 -0.030630
v -0.011097 -0.352627 -0.017599
v 0.000187 -0.352627 -0.011084
v 0.011472 -0.352627 -0.017599
v 0.011472 -0.352627 -0.030630
v 0.000187 -0.352627 -0.033999
v -0.008373 -0.352627 -0.029057
v -0.008373 -0.352627 -0.019172
v 0.000187 -0.352627 -0.014230
v 0.008748 -0.352627 -0.019172
v 0.008748 -0.352627 -0.029057
v 0.000187 0.272969 -0.033999
v -0.008373 0.272969 -0.029057
v -0.008373 0.272969 -0.019172
v 0.000187 0.272969 -0.014230
v 0.008748 0.272969 -0.019172
v 0.008748 0.272969 -0.029057
v 0.000187 0.302619 -0.041609
v -0.014963 0.302619 -0.032862
v -0.014963 0.302619 -0.015367
v 0.000187 0.302558 -0.006585
v 0.015338 0.302619 -0.015367
v 0.015338 0.302619 -0.032862
v 0.000187 0.308609 -0.041609
v -0.014963 0.308609 -0.032862
v -0.014963 0.308609 -0.015367
v 0.000187 0.308413 -0.006507
v 0.015338 0.308609 -0.015367
v 0.015338 0.308609 -0.032862
v 0.000187 0.308609 -0.033140
v -0.007629 0.308609 -0.028627
v -0.007629 0.308609 -0.019602
v 0.000187 0.308609 -0.015089
v 0.008004 0.308609 -0.019602
v 0.008004 0.308609 -0.028627
v 0.000187 0.313944 -0.033140
v -0.007629 0.313944 -0.028627
v -0.007629 0.313944 -0.019602
v 0.000187 0.313930 -0.015081
v 0.008004 0.313944 -0.019602
v 0.008004 0.313944 -0.028627
v 0.000187 0.362804 -0.024054
v 0.009470 0.319283 -0.014616
v -0.009897 0.338727 -0.034027
v -0.009897 0.319360 -0.034027
v -0.009897 0.338289 -0.014406
v -0.009897 0.319282 -0.014615
v 0.009470 0.338293 -0.014408
v 0.009470 0.319360 -0.034027
v 0.009470 0.338727 -0.034027
v -0.004729 0.325982 -0.014705
v -0.004729 0.325543 -0.002641
v -0.004729 0.329849 0.018580
v -0.004729 0.341023 0.030688
v -0.004729 0.351105 0.047184
v -0.004729 0.352148 0.079753
v -0.004729 0.344651 0.105532
v 0.003494 0.325982 -0.014705
v 0.003494 0.325543 -0.002641
v 0.003494 0.329849 0.018580
v 0.003494 0.341023 0.030688
v 0.003494 0.351105 0.047184
v 0.003494 0.352148 0.079753
v 0.003494 0.344651 0.105532
v -0.004729 0.334191 -0.017780
v -0.004729 0.333866 -0.005636
v -0.004729 0.338516 0.015816
v -0.004729 0.349568 0.027355
v -0.004729 0.359308 0.044021
v -0.004729 0.360813 0.077645
v -0.004729 0.353450 0.104200
v 0.003494 0.334191 -0.017780
v 0.003494 0.333866 -0.005636
v 0.003494 0.338516 0.015816
v 0.003494 0.349568 0.027355
v 0.003494 0.359308 0.044021
v 0.003494 0.360813 0.077645
v 0.003494 0.353450 0.104200
v -0.011070 0.241747 0.084369
v -0.025054 0.300284 0.098353
v -0.011070 0.241747 0.063146
v -0.025054 0.300284 0.049162
v 0.010153 0.241747 0.084369
v 0.024137 0.300284 0.098353
v 0.010153 0.241747 0.063146
v 0.024137 0.300284 0.049162
v -0.003988 0.311782 0.077287
v -0.003988 0.311782 0.070228
v 0.003071 0.311782 0.070228
v 0.003071 0.311782 0.077287
v -0.031456 0.299776 0.104756
v -0.031456 0.299776 0.042759
v 0.030540 0.299776 0.042759
v 0.030540 0.299776 0.104756
v -0.022701 0.304688 0.096000
v -0.022701 0.304688 0.051515
v 0.021784 0.304688 0.051515
v 0.021784 0.304688 0.096000
v -0.015150 0.245672 0.059066
v -0.015150 0.245672 0.088449
v 0.014233 0.245672 0.059066
v 0.014233 0.245672 0.088449
v -0.018084 0.246064 0.056132
v -0.018084 0.246064 0.091384
v 0.017168 0.246064 0.056132
v 0.017168 0.246064 0.091384
v -0.013189 0.241355 0.061027
v -0.013189 0.241355 0.086489
v 0.012273 0.241355 0.061027
v 0.012273 0.241355 0.086489
v -0.018106 0.311782 0.091406
v -0.018106 0.311782 0.056109
v 0.017190 0.311782 0.056109
v 0.017190 0.311782 0.091406
v -0.003988 0.352542 0.077287
v -0.003988 0.352542 0.070228
v 0.003071 0.352542 0.070228
v 0.003071 0.352542 0.077287
vt 0.944272 0.990857
vt 0.944073 0.972862
vt 0.922579 0.971052
vt 0.920708 0.988368
vt 0.898536 0.983727
vt 0.902467 0.966889
vt 0.882760 0.960542
vt 0.876593 0.976884
vt 0.969130 0.990166
vt 0.966567 0.972060
vt 0.863713 0.949426
vt 0.854815 0.966351
vt 0.994752 0.986125
vt 0.991634 0.966357
vt 0.965684 0.964994
vt 0.944360 0.966283
vt 0.923597 0.964831
vt 0.903900 0.961533
vt 0.885409 0.954627
vt 0.868311 0.945486
vt 0.987400 0.959535
vt 0.978483 0.913107
vt 0.962623 0.910789
vt 0.947593 0.910637
vt 0.932312 0.909954
vt 0.917198 0.908416
vt 0.902206 0.906312
vt 0.886358 0.905077
vt 0.962879 0.908704
vt 0.947768 0.908499
vt 0.932582 0.907819
vt 0.917571 0.906302
vt 0.902613 0.903960
vt 0.885105 0.902409
vt 0.980035 0.911288
vt 0.981800 0.908159
vt 0.962985 0.906069
vt 0.947817 0.905692
vt 0.932752 0.905020
vt 0.917881 0.903526
vt 0.903022 0.901094
vt 0.884369 0.898479
vt 0.963119 0.900923
vt 0.947970 0.900927
vt 0.933129 0.900320
vt 0.918472 0.898905
vt 0.903758 0.896844
vt 0.887484 0.893597
vt 0.980528 0.901248
vt 0.949750 0.880712
vt 0.936097 0.880785
vt 0.922587 0.880170
vt 0.909275 0.878970
vt 0.963141 0.879862
vt 0.895509 0.877609
vt 0.976957 0.879741
vt 0.936236 0.878621
vt 0.922829 0.878038
vt 0.909645 0.876609
vt 0.894303 0.874769
vt 0.978119 0.877858
vt 0.963156 0.877907
vt 0.949784 0.878550
vt 0.922859 0.874015
vt 0.909956 0.872793
vt 0.962707 0.874060
vt 0.949437 0.874493
vt 0.936098 0.874532
vt 0.895345 0.869739
vt 0.978308 0.872620
vt 0.910583 0.869830
vt 0.897766 0.867186
vt 0.975746 0.868734
vt 0.962646 0.870391
vt 0.949579 0.871068
vt 0.936396 0.871119
vt 0.923293 0.870687
vt 0.975881 0.102584
vt 0.964300 0.101805
vt 0.952762 0.100980
vt 0.941108 0.101313
vt 0.929248 0.101618
vt 0.916526 0.102144
vt 0.987489 0.103578
vt 0.994752 0.066757
vt 0.977605 0.070557
vt 0.965186 0.071819
vt 0.953687 0.071555
vt 0.942322 0.070597
vt 0.929548 0.068502
vt 0.911308 0.062661
vt 0.976465 0.066032
vt 0.964954 0.067340
vt 0.953883 0.067672
vt 0.942767 0.066252
vt 0.930892 0.063432
vt 0.914482 0.055089
vt 0.992947 0.060033
vt 0.984149 0.053117
vt 0.974863 0.057800
vt 0.964582 0.060953
vt 0.954340 0.059161
vt 0.943923 0.059555
vt 0.933581 0.055184
vt 0.924527 0.049094
vt 0.973148 0.052292
vt 0.963943 0.054443
vt 0.954656 0.054281
vt 0.945468 0.053396
vt 0.936493 0.049630
vt 0.928038 0.044083
vt 0.981928 0.048507
vt 0.958787 0.002355
vt 0.076643 0.797345
vt 0.106377 0.797345
vt 0.106377 0.827079
vt 0.076643 0.827079
vt 0.106377 0.856813
vt 0.076643 0.856813
vt 0.106377 0.886548
vt 0.076643 0.886548
vt 0.106377 0.916282
vt 0.076643 0.916282
vt 0.046909 0.856813
vt 0.046909 0.886548
vt 0.136111 0.856813
vt 0.136111 0.886548
vt 0.428458 0.645055
vt 0.418494 0.645059
vt 0.418042 0.608045
vt 0.427935 0.605579
vt 0.428458 0.689799
vt 0.418516 0.689199
vt 0.417579 0.669016
vt 0.428204 0.669001
vt 0.423318 0.729603
vt 0.413859 0.728222
vt 0.415754 0.714474
vt 0.425345 0.715716
vt 0.412462 0.591428
vt 0.413390 0.569737
vt 0.399821 0.645071
vt 0.401429 0.610916
vt 0.409822 0.611573
vt 0.408367 0.645341
vt 0.395197 0.685625
vt 0.398039 0.665179
vt 0.407478 0.665803
vt 0.406799 0.686767
vt 0.394928 0.730940
vt 0.394713 0.715947
vt 0.405211 0.716370
vt 0.404378 0.731115
vt 0.406294 0.591616
vt 0.410234 0.593995
vt 0.393144 0.605785
vt 0.385487 0.727529
vt 0.384085 0.713586
vt 0.382905 0.686693
vt 0.387700 0.666679
vt 0.389946 0.643675
vt 0.366000 0.465419
vt 0.306343 0.443428
vt 0.334375 0.395557
vt 0.382745 0.436824
vt 0.382745 0.559256
vt 0.334376 0.600524
vt 0.306343 0.552652
vt 0.366000 0.530662
vt 0.296598 0.498040
vt 0.360179 0.498040
vt 0.345889 0.625523
vt 0.316048 0.637509
vt 0.307662 0.629181
vt 0.313783 0.618306
vt 0.382905 0.455852
vt 0.425550 0.396367
vt 0.448087 0.395557
vt 0.391921 0.459624
vt 0.346473 0.650796
vt 0.354433 0.650796
vt 0.354433 0.696762
vt 0.346473 0.696762
vt 0.398929 0.528612
vt 0.384688 0.498668
vt 0.391076 0.497375
vt 0.402673 0.526172
vt 0.438666 0.569450
vt 0.449171 0.569577
vt 0.451651 0.439398
vt 0.409815 0.468709
vt 0.403188 0.464353
vt 0.449017 0.420590
vt 0.410395 0.520304
vt 0.451049 0.545042
vt 0.396911 0.496342
vt 0.403352 0.495381
vt 0.414808 0.516047
vt 0.451651 0.532999
vt 0.313075 0.616483
vt 0.350301 0.622507
vt 0.315707 0.639257
vt 0.306144 0.629356
vt 0.312271 0.648514
vt 0.296598 0.630798
vt 0.300205 0.630067
vt 0.313448 0.646130
vt 0.307833 0.608245
vt 0.353986 0.600684
vt 0.362393 0.607928
vt 0.310148 0.612348
vt 0.350534 0.628014
vt 0.362393 0.646275
vt 0.357648 0.650636
vt 0.431669 0.500833
vt 0.441222 0.502023
vt 0.438872 0.477911
vt 0.426050 0.484344
vt 0.425512 0.494178
vt 0.330552 0.650796
vt 0.338513 0.650796
vt 0.338513 0.696762
vt 0.330553 0.696762
vt 0.362393 0.650796
vt 0.362393 0.696762
vn 0.5000 0.0000 0.8660
vn -1.0000 0.0000 0.0000
vn 1.0000 0.0000 0.0000
vn -0.5000 0.0000 0.8660
vn -0.5000 0.0000 -0.8660
vn 0.5000 0.0000 -0.8660
vn 0.7932 0.6090 0.0000
vn -0.3966 0.6090 0.6869
vn -0.3966 0.6090 -0.6869
vn 0.3966 0.6090 -0.6869
vn 0.3966 0.6090 0.6869
vn -0.7932 0.6090 0.0000
vn 0.4955 0.1334 -0.8583
vn 0.4955 0.1334 0.8583
vn -0.9911 0.1334 0.0000
vn 0.9911 0.1334 0.0000
vn -0.4955 0.1334 0.8583
vn -0.4955 0.1334 -0.8583
vn 0.0000 -1.0000 -0.0000
vn 0.4046 -0.5874 -0.7008
vn 0.4046 -0.5874 0.7009
vn -0.8093 -0.5874 0.0000
vn 0.8093 -0.5874 0.0000
vn -0.4046 -0.5874 0.7009
vn -0.4046 -0.5874 -0.7008
vn 0.7398 0.6728 0.0000
vn -0.3699 0.6728 0.6407
vn -0.3699 0.6728 -0.6407
vn 0.3699 0.6728 -0.6407
vn 0.3699 0.6728 0.6407
vn -0.7398 0.6728 0.0000
vn 0.4645 0.3702 0.8045
vn -0.9290 0.3702 0.0000
vn 0.9290 0.3702 0.0000
vn -0.4645 0.3702 0.8045
vn -0.4645 0.3702 -0.8045
vn 0.4645 0.3702 -0.8045
vn 0.0000 1.0000 0.0000
vn 0.9936 -0.1133 0.0000
vn -0.4975 -0.1137 0.8600
vn -0.4968 -0.1133 -0.8604
vn 0.4968 -0.1133 -0.8604
vn 0.4975 -0.1137 0.8600
vn -0.9936 -0.1133 0.0000
vn 0.4973 -0.1046 -0.8613
vn 0.4995 -0.1077 0.8596
vn 0.4994 -0.1079 0.8596
vn -0.9945 -0.1046 0.0000
vn 0.9945 -0.1046 0.0000
vn -0.4994 -0.1079 0.8596
vn -0.4995 -0.1077 0.8596
vn -0.4973 -0.1046 -0.8613
vn -0.5032 -0.0057 0.8641
vn 0.5032 -0.0057 0.8641
vn 0.0001 1.0000 0.0076
vn 0.0001 1.0000 0.0075
vn -0.0000 0.9999 0.0151
vn -0.0001 1.0000 0.0076
vn -0.0001 1.0000 0.0075
vn 0.9970 0.0768 0.0000
vn 0.9970 0.0769 0.0000
vn -0.5003 -0.0007 0.8658
vn -0.4989 0.0760 0.8633
vn -0.4989 0.0761 0.8633
vn -0.4985 0.0774 -0.8634
vn 0.4985 0.0774 -0.8634
vn 0.5003 -0.0007 0.8658
vn 0.4989 0.0761 0.8633
vn 0.4989 0.0760 0.8633
vn -0.9970 0.0769 0.0000
vn -0.9970 0.0768 0.0000
vn 0.4936 0.1590 -0.8550
vn 0.4942 0.1570 0.8550
vn -0.9874 0.1580 0.0000
vn 0.9874 0.1580 0.0000
vn -0.4943 0.1570 0.8550
vn -0.4936 0.1590 -0.8550
vn 0.0000 0.0000 -1.0000
vn 0.0001 -0.0110 0.9999
vn 0.0000 -1.0000 -0.0040
vn -0.0001 0.9998 0.0222
vn 0.0000 -0.9582 0.2862
vn 0.0000 -0.9921 -0.1252
vn 0.0000 -0.8903 0.4553
vn 0.0000 -0.7979 0.6028
vn 0.0000 -0.9993 -0.0364
vn 0.0000 -0.9966 0.0818
vn 0.0000 -0.9602 -0.2792
vn 0.0000 0.9591 -0.2829
vn 0.0000 0.9936 0.1126
vn 0.0000 0.8830 -0.4694
vn 0.0000 0.7983 -0.6023
vn 0.0000 0.9996 0.0268
vn 0.0000 0.9956 -0.0932
vn 0.0000 0.9636 0.2672
vn 0.0000 0.1497 0.9887
vn -0.9840 -0.1784 0.0000
vn 0.0000 -0.1784 -0.9840
vn 0.9840 -0.1784 0.0000
vn 0.0000 -0.1784 0.9840
vn 0.0687 -0.9953 0.0687
vn -0.0687 -0.9953 0.0687
vn -0.0687 -0.9953 -0.0687
vn 0.0687 -0.9953 -0.0687
vn -0.0395 -0.9984 0.0395
vn 0.0395 -0.9984 0.0395
vn 0.0395 -0.9984 -0.0396
vn -0.0395 -0.9984 -0.0396
vn -0.0395 -0.9984 -0.0395
vn 0.0000 0.5436 -0.8394
vn 0.0000 0.7872 -0.6166
vn -0.4892 0.8722 0.0000
vn -0.6166 0.7872 0.0000
vn 0.0000 0.8722 0.4892
vn 0.0000 0.7872 0.6166
vn 0.0000 0.8722 -0.4892
vn 0.4892 0.8722 0.0000
vn 0.6166 0.7872 0.0000
vn 0.8394 0.5436 0.0000
vn -0.8394 0.5436 0.0000
vn 0.0000 0.5436 0.8394
vn 0.0917 -0.9916 -0.0917
vn 0.0917 -0.9916 0.0917
vn -0.0917 -0.9916 0.0917
vn -0.0917 -0.9916 -0.0917
vn -0.0665 0.9956 0.0665
vn -0.0665 0.9956 -0.0665
vn 0.0665 0.9956 -0.0665
vn 0.0665 0.9956 0.0665
vn -0.6933 -0.7206 0.0000
vn 0.0000 -0.7206 -0.6933
vn 0.6933 -0.7206 0.0000
vn 0.0000 -0.7206 0.6933
vn 0.0000 0.0000 1.0000
usemtl tinajon
s 1
f 5/1/1 11/2/1 10/3/1 4/4/1
f 3/5/2 9/6/2 8/7/2 2/8/2
f 6/9/3 12/10/3 11/2/3 5/1/3
f 4/4/4 10/3/4 9/6/4 3/5/4
f 2/8/5 8/7/5 7/11/5 1/12/5
f 1/13/6 7/14/6 12/10/6 6/9/6
f 12/10/7 18/15/7 17/16/7 11/2/7
f 10/3/8 16/17/8 15/18/8 9/6/8
f 8/7/9 14/19/9 13/20/9 7/11/9
f 7/14/10 13/21/10 18/15/10 12/10/10
f 11/2/11 17/16/11 16/17/11 10/3/11
f 9/6/12 15/18/12 14/19/12 8/7/12
f 13/21/13 19/22/13 24/23/13 18/15/13
f 17/16/14 23/24/14 22/25/14 16/17/14
f 15/18/15 21/26/15 20/27/15 14/19/15
f 18/15/16 24/23/16 23/24/16 17/16/16
f 16/17/17 22/25/17 21/26/17 15/18/17
f 14/19/18 20/27/18 19/28/18 13/20/18
f 24/23/19 30/29/19 29/30/19 23/24/19
f 22/25/19 28/31/19 27/32/19 21/26/19
f 20/27/19 26/33/19 25/34/19 19/28/19
f 19/22/19 25/35/19 30/29/19 24/23/19
f 23/24/19 29/30/19 28/31/19 22/25/19
f 21/26/19 27/32/19 26/33/19 20/27/19
f 25/35/20 31/36/20 36/37/20 30/29/20
f 29/30/21 35/38/21 34/39/21 28/31/21
f 27/32/22 33/40/22 32/41/22 26/33/22
f 30/29/23 36/37/23 35/38/23 29/30/23
f 28/31/24 34/39/24 33/40/24 27/32/24
f 26/33/25 32/41/25 31/42/25 25/34/25
f 36/37/26 42/43/26 41/44/26 35/38/26
f 34/39/27 40/45/27 39/46/27 33/40/27
f 32/41/28 38/47/28 37/48/28 31/42/28
f 31/36/29 37/49/29 42/43/29 36/37/29
f 35/38/30 41/44/30 40/45/30 34/39/30
f 33/40/31 39/46/31 38/47/31 32/41/31
f 41/44/32 47/50/32 46/51/32 40/45/32
f 39/46/33 45/52/33 44/53/33 38/47/33
f 42/43/34 48/54/34 47/50/34 41/44/34
f 40/45/35 46/51/35 45/52/35 39/46/35
f 38/47/36 44/53/36 43/55/36 37/48/36
f 37/49/37 43/56/37 48/54/37 42/43/37
f 46/51/19 52/57/19 51/58/19 45/52/19
f 44/53/19 50/59/19 49/60/19 43/55/19
f 43/56/19 49/61/19 54/62/19 48/54/19
f 47/50/19 53/63/19 52/57/19 46/51/19
f 45/52/19 51/58/19 50/59/19 44/53/19
f 48/54/19 54/62/19 53/63/19 47/50/19
f 51/58/2 57/64/2 56/65/2 50/59/2
f 54/62/3 60/66/3 59/67/3 53/63/3
f 52/57/4 58/68/4 57/64/4 51/58/4
f 50/59/5 56/65/5 55/69/5 49/60/5
f 49/61/6 55/70/6 60/66/6 54/62/6
f 53/63/1 59/67/1 58/68/1 52/57/1
f 56/65/38 62/71/38 61/72/38 55/69/38
f 55/70/38 61/73/38 66/74/38 60/66/38
f 59/67/38 65/75/38 64/76/38 58/68/38
f 57/64/38 63/77/38 62/71/38 56/65/38
f 60/66/38 66/74/38 65/75/38 59/67/38
f 58/68/38 64/76/38 63/77/38 57/64/38
f 66/74/3 72/78/39 71/79/39 65/75/3
f 64/76/4 70/80/40 69/81/40 63/77/4
f 62/71/5 68/82/41 67/83/41 61/72/5
f 61/73/6 67/84/42 72/78/42 66/74/6
f 65/75/1 71/79/43 70/80/43 64/76/1
f 63/77/2 69/81/44 68/82/44 62/71/2
f 67/84/42 73/85/45 78/86/45 72/78/42
f 71/79/43 77/87/46 76/88/47 70/80/43
f 69/81/44 75/89/48 74/90/48 68/82/44
f 72/78/39 78/86/49 77/87/49 71/79/39
f 70/80/40 76/88/50 75/89/51 69/81/40
f 68/82/41 74/90/52 73/91/52 67/83/41
f 78/86/49 84/92/3 83/93/3 77/87/49
f 76/88/50 82/94/53 81/95/53 75/89/51
f 74/90/52 80/96/5 79/97/5 73/91/52
f 73/85/45 79/98/6 84/92/6 78/86/45
f 77/87/46 83/93/54 82/94/54 76/88/47
f 75/89/48 81/95/2 80/96/2 74/90/48
f 79/98/38 85/99/38 90/100/38 84/92/38
f 83/93/55 89/101/56 88/102/57 82/94/57
f 81/95/58 87/103/59 86/104/38 80/96/38
f 84/92/38 90/100/38 89/101/56 83/93/55
f 82/94/57 88/102/57 87/103/59 81/95/58
f 80/96/38 86/104/38 85/105/38 79/97/38
f 90/100/3 96/106/60 95/107/61 89/101/3
f 88/102/62 94/108/63 93/109/64 87/103/62
f 86/104/5 92/110/65 91/111/65 85/105/5
f 85/99/6 91/112/66 96/106/66 90/100/6
f 89/101/67 95/107/68 94/108/69 88/102/67
f 87/103/2 93/109/70 92/110/71 86/104/2
f 91/112/66 97/113/72 96/106/66
f 95/107/68 97/113/73 94/108/69
f 93/109/70 97/113/74 92/110/71
f 96/106/60 97/113/75 95/107/61
f 94/108/63 97/113/76 93/109/64
f 92/110/65 97/113/77 91/111/65
f 102/114/2 101/115/2 99/116/2 100/117/2
f 100/117/78 99/116/78 105/118/78 104/119/78
f 104/119/3 105/118/3 103/120/3 98/121/3
f 98/121/79 103/120/79 101/122/79 102/123/79
f 100/124/80 104/119/80 98/121/80 102/125/80
f 105/118/81 99/126/81 101/127/81 103/120/81
f 110/128/82 117/129/82 118/130/83 111/131/83
f 108/132/84 115/133/84 116/134/85 109/135/85
f 106/136/86 113/137/86 114/138/87 107/139/87
f 111/131/83 118/130/83 119/140/88 112/141/88
f 109/135/85 116/134/85 117/129/82 110/128/82
f 107/139/87 114/138/87 115/133/84 108/132/84
f 124/142/89 125/143/90 132/144/90 131/145/89
f 122/146/91 123/147/92 130/148/92 129/149/91
f 120/150/93 121/151/94 128/152/94 127/153/93
f 125/143/90 126/154/95 133/155/95 132/144/90
f 123/147/92 124/142/89 131/145/89 130/148/92
f 121/151/94 122/146/91 129/149/91 128/152/94
f 111/156/2 112/141/2 126/154/2 125/143/2
f 114/138/3 113/137/3 127/153/3 128/152/3
f 115/133/3 114/138/3 128/152/3 129/149/3
f 106/157/2 107/158/2 121/151/2 120/150/2
f 116/134/3 115/133/3 129/149/3 130/148/3
f 107/158/2 108/159/2 122/146/2 121/151/2
f 117/129/3 116/134/3 130/148/3 131/145/3
f 108/159/2 109/160/2 123/147/2 122/146/2
f 118/130/3 117/129/3 131/145/3 132/144/3
f 109/160/2 110/161/2 124/142/2 123/147/2
f 112/141/96 119/140/96 133/155/96 126/154/96
f 119/140/3 118/130/3 132/144/3 133/155/3
f 110/161/2 111/156/2 125/143/2 124/142/2
f 155/162/97 135/163/97 137/164/97 154/165/97
f 154/166/98 137/167/98 141/168/98 156/169/98
f 156/169/99 141/168/99 139/170/99 157/171/99
f 157/171/100 139/170/100 135/163/100 155/162/100
f 136/172/101 140/173/102 138/174/103 134/175/104
f 141/176/105 137/177/106 147/178/106 148/179/105
f 145/180/3 144/181/3 172/182/3 173/183/3
f 135/184/107 139/185/108 149/186/109 146/187/107
f 137/188/106 135/184/107 146/187/107 147/189/106
f 167/190/110 168/191/110 152/192/111 151/193/111
f 147/189/112 146/187/112 150/194/113 151/195/113
f 146/187/114 149/186/114 153/196/115 150/194/115
f 148/179/116 147/178/116 151/193/111 152/192/111
f 149/186/117 148/179/117 152/192/118 153/196/118
f 168/191/119 169/197/119 153/196/118 152/192/118
f 166/198/120 167/199/120 151/195/113 150/194/113
f 139/185/108 141/176/105 148/179/105 149/186/109
f 169/197/121 166/198/121 150/194/115 153/196/115
f 136/172/101 134/175/104 163/200/122 162/201/123
f 138/174/103 140/173/102 164/202/124 165/203/125
f 156/204/126 157/205/127 161/206/127 160/207/126
f 155/208/128 154/209/129 158/210/129 159/211/128
f 162/201/130 163/200/130 159/211/130 158/210/130
f 164/202/131 162/212/131 158/213/131 160/207/131
f 165/203/132 164/202/132 160/207/132 161/206/132
f 163/200/133 165/203/133 161/206/133 159/211/133
f 157/205/127 155/208/128 159/211/128 161/206/127
f 134/175/104 138/174/103 165/203/125 163/200/122
f 140/173/102 136/172/101 162/212/123 164/202/124
f 154/214/129 156/204/126 160/207/126 158/213/129
f 142/215/38 143/216/38 167/199/38 166/198/38
f 143/217/38 144/218/38 168/191/38 167/190/38
f 144/218/38 145/219/38 169/197/38 168/191/38
f 145/219/38 142/215/38 166/198/38 169/197/38
f 143/220/2 142/221/2 170/222/2 171/223/2
f 142/221/134 145/180/134 173/183/134 170/222/134
f 144/181/78 143/224/78 171/225/78 172/182/78
