# Blender v2.80 (sub 74) OBJ File: 'tinajon.blend'
# www.blender.org
mtllib sennal1.mtl
o Cylinder.004
v -0.003078 -0.259182 0.006265
v -0.003078 -0.259182 -0.006323
v 0.002717 -0.259182 0.006265
v 0.002717 -0.259182 -0.006323
v -0.003078 0.157850 0.006265
v -0.003078 0.157850 -0.006323
v 0.002683 0.157850 -0.006323
v 0.002683 0.157850 0.006265
v 0.006040 0.161333 0.037547
v 0.006040 0.086399 0.000080
v 0.006040 0.161333 -0.037387
v -0.005005 0.161333 -0.037387
v -0.005005 0.086399 0.000080
v -0.005005 0.161333 0.037547
vt 0.740492 0.340522
vt 0.740492 0.995383
vt 0.729062 0.995341
vt 0.729062 0.340481
vt 0.709296 0.995341
vt 0.709295 0.340481
vt 0.697866 0.995379
vt 0.697865 0.340518
vt 0.769711 0.361039
vt 0.760302 0.361039
vt 0.760302 0.340481
vt 0.769711 0.340481
vt 0.760259 0.340522
vt 0.760259 0.995383
vt 0.577417 0.562199
vt 0.577417 0.727738
vt 0.444985 0.661523
vt 0.577417 0.562199
vt 0.577417 0.727738
vt 0.444985 0.661523
vn 0.0000 0.0000 -1.0000
vn 1.0000 0.0001 0.0000
vn 0.0000 0.0000 1.0000
vn 0.0000 1.0000 0.0000
vn -1.0000 0.0000 0.0000
vn 1.0000 0.0000 0.0000
usemtl tinajon
s off
f 2/1/1 6/2/1 7/3/1 4/4/1
f 4/4/2 7/3/2 8/5/2 3/6/2
f 3/6/3 8/5/3 5/7/3 1/8/3
f 7/9/4 6/10/4 5/11/4 8/12/4
f 1/13/5 5/14/5 6/2/5 2/1/5
f 10/15/6 11/16/6 9/17/6
f 13/18/5 14/19/5 12/20/5
